<mxfile host="app.diagrams.net" modified="2022-06-16T02:51:31.895Z" agent="5.0 (Macintosh; Intel Mac OS X 10_15_7) AppleWebKit/537.36 (KHTML, like Gecko) Chrome/102.0.0.0 Safari/537.36" etag="ku-e5Vf9bQF1p67Ea4M0" version="20.0.1" type="github">
  <diagram id="EAOzeYt4tzXb3fvxN5T4" name="Page-1">
    <mxGraphModel dx="1234" dy="793" grid="1" gridSize="10" guides="1" tooltips="1" connect="1" arrows="1" fold="1" page="1" pageScale="1" pageWidth="827" pageHeight="1169" math="0" shadow="0">
      <root>
        <mxCell id="0" />
        <mxCell id="1" parent="0" />
        <mxCell id="11Kglz4fZKk6cYv32vpW-4" value="" style="edgeStyle=orthogonalEdgeStyle;rounded=0;orthogonalLoop=1;jettySize=auto;html=1;" edge="1" parent="1" source="11Kglz4fZKk6cYv32vpW-2" target="11Kglz4fZKk6cYv32vpW-3">
          <mxGeometry relative="1" as="geometry" />
        </mxCell>
        <mxCell id="11Kglz4fZKk6cYv32vpW-2" value="start" style="rounded=0;whiteSpace=wrap;html=1;" vertex="1" parent="1">
          <mxGeometry x="120" y="100" width="120" height="60" as="geometry" />
        </mxCell>
        <mxCell id="11Kglz4fZKk6cYv32vpW-20" style="edgeStyle=orthogonalEdgeStyle;rounded=0;orthogonalLoop=1;jettySize=auto;html=1;" edge="1" parent="1" source="11Kglz4fZKk6cYv32vpW-3">
          <mxGeometry relative="1" as="geometry">
            <mxPoint x="180" y="360" as="targetPoint" />
          </mxGeometry>
        </mxCell>
        <mxCell id="11Kglz4fZKk6cYv32vpW-3" value="onverify.startt()" style="rounded=0;whiteSpace=wrap;html=1;" vertex="1" parent="1">
          <mxGeometry x="120" y="240" width="120" height="60" as="geometry" />
        </mxCell>
        <mxCell id="11Kglz4fZKk6cYv32vpW-5" value="step=start" style="text;html=1;align=center;verticalAlign=middle;resizable=0;points=[];autosize=1;strokeColor=none;fillColor=none;" vertex="1" parent="1">
          <mxGeometry x="184" y="190" width="70" height="20" as="geometry" />
        </mxCell>
        <mxCell id="11Kglz4fZKk6cYv32vpW-9" value="" style="edgeStyle=orthogonalEdgeStyle;rounded=0;orthogonalLoop=1;jettySize=auto;html=1;" edge="1" source="11Kglz4fZKk6cYv32vpW-10" target="11Kglz4fZKk6cYv32vpW-13" parent="1">
          <mxGeometry relative="1" as="geometry" />
        </mxCell>
        <mxCell id="11Kglz4fZKk6cYv32vpW-10" value="start" style="rounded=0;whiteSpace=wrap;html=1;" vertex="1" parent="1">
          <mxGeometry x="350" y="100" width="120" height="60" as="geometry" />
        </mxCell>
        <mxCell id="11Kglz4fZKk6cYv32vpW-13" value="onverify.startt()" style="rounded=0;whiteSpace=wrap;html=1;" vertex="1" parent="1">
          <mxGeometry x="350" y="240" width="120" height="60" as="geometry" />
        </mxCell>
        <mxCell id="11Kglz4fZKk6cYv32vpW-14" value="step=start" style="text;html=1;align=center;verticalAlign=middle;resizable=0;points=[];autosize=1;strokeColor=none;fillColor=none;" vertex="1" parent="1">
          <mxGeometry x="414" y="190" width="70" height="20" as="geometry" />
        </mxCell>
        <mxCell id="11Kglz4fZKk6cYv32vpW-15" value="" style="edgeStyle=orthogonalEdgeStyle;rounded=0;orthogonalLoop=1;jettySize=auto;html=1;exitX=0.5;exitY=1;exitDx=0;exitDy=0;" edge="1" parent="1" source="11Kglz4fZKk6cYv32vpW-13" target="11Kglz4fZKk6cYv32vpW-17">
          <mxGeometry relative="1" as="geometry">
            <mxPoint x="190" y="310" as="sourcePoint" />
            <mxPoint x="410" y="390" as="targetPoint" />
            <Array as="points">
              <mxPoint x="410" y="470" />
            </Array>
          </mxGeometry>
        </mxCell>
        <mxCell id="11Kglz4fZKk6cYv32vpW-16" value="step=BSGP" style="edgeLabel;html=1;align=center;verticalAlign=middle;resizable=0;points=[];" vertex="1" connectable="0" parent="11Kglz4fZKk6cYv32vpW-15">
          <mxGeometry x="-0.375" y="3" relative="1" as="geometry">
            <mxPoint x="-8" y="-7" as="offset" />
          </mxGeometry>
        </mxCell>
        <mxCell id="11Kglz4fZKk6cYv32vpW-18" value="true" style="edgeStyle=orthogonalEdgeStyle;rounded=0;orthogonalLoop=1;jettySize=auto;html=1;" edge="1" parent="1" source="11Kglz4fZKk6cYv32vpW-17" target="11Kglz4fZKk6cYv32vpW-24">
          <mxGeometry relative="1" as="geometry">
            <mxPoint x="410" y="570" as="targetPoint" />
            <Array as="points">
              <mxPoint x="410" y="390" />
            </Array>
          </mxGeometry>
        </mxCell>
        <mxCell id="11Kglz4fZKk6cYv32vpW-34" value="" style="edgeStyle=orthogonalEdgeStyle;rounded=0;orthogonalLoop=1;jettySize=auto;html=1;" edge="1" parent="1" source="11Kglz4fZKk6cYv32vpW-17" target="11Kglz4fZKk6cYv32vpW-33">
          <mxGeometry relative="1" as="geometry" />
        </mxCell>
        <mxCell id="11Kglz4fZKk6cYv32vpW-35" value="false" style="edgeLabel;html=1;align=center;verticalAlign=middle;resizable=0;points=[];" vertex="1" connectable="0" parent="11Kglz4fZKk6cYv32vpW-34">
          <mxGeometry x="-0.4" y="4" relative="1" as="geometry">
            <mxPoint as="offset" />
          </mxGeometry>
        </mxCell>
        <mxCell id="11Kglz4fZKk6cYv32vpW-17" value="facialStartRef" style="rhombus;whiteSpace=wrap;html=1;" vertex="1" parent="1">
          <mxGeometry x="370" y="390" width="80" height="80" as="geometry" />
        </mxCell>
        <mxCell id="11Kglz4fZKk6cYv32vpW-21" value="step=BSGP" style="edgeLabel;html=1;align=center;verticalAlign=middle;resizable=0;points=[];" vertex="1" connectable="0" parent="1">
          <mxGeometry x="170" y="320" as="geometry" />
        </mxCell>
        <mxCell id="11Kglz4fZKk6cYv32vpW-25" style="edgeStyle=orthogonalEdgeStyle;rounded=0;orthogonalLoop=1;jettySize=auto;html=1;" edge="1" parent="1" source="11Kglz4fZKk6cYv32vpW-24">
          <mxGeometry relative="1" as="geometry">
            <mxPoint x="180" y="490" as="targetPoint" />
          </mxGeometry>
        </mxCell>
        <mxCell id="11Kglz4fZKk6cYv32vpW-24" value="startFaceVerify" style="rounded=0;whiteSpace=wrap;html=1;" vertex="1" parent="1">
          <mxGeometry x="120" y="360" width="120" height="60" as="geometry" />
        </mxCell>
        <mxCell id="11Kglz4fZKk6cYv32vpW-30" value="" style="edgeStyle=orthogonalEdgeStyle;rounded=0;orthogonalLoop=1;jettySize=auto;html=1;" edge="1" parent="1" source="11Kglz4fZKk6cYv32vpW-26" target="11Kglz4fZKk6cYv32vpW-29">
          <mxGeometry relative="1" as="geometry" />
        </mxCell>
        <mxCell id="11Kglz4fZKk6cYv32vpW-26" value="callFaceVerify" style="rounded=0;whiteSpace=wrap;html=1;" vertex="1" parent="1">
          <mxGeometry x="120" y="490" width="120" height="60" as="geometry" />
        </mxCell>
        <mxCell id="11Kglz4fZKk6cYv32vpW-29" value="GAFaceVerify" style="rounded=0;whiteSpace=wrap;html=1;" vertex="1" parent="1">
          <mxGeometry x="120" y="630" width="120" height="60" as="geometry" />
        </mxCell>
        <mxCell id="11Kglz4fZKk6cYv32vpW-33" value="" style="whiteSpace=wrap;html=1;" vertex="1" parent="1">
          <mxGeometry x="350" y="525" width="120" height="60" as="geometry" />
        </mxCell>
      </root>
    </mxGraphModel>
  </diagram>
</mxfile>
